<svg id="visual" viewBox="0 0 1920 1080" width="1920" height="1080" xmlns="http://www.w3.org/2000/svg" xmlns:xlink="http://www.w3.org/1999/xlink" version="1.1"><rect x="0" y="0" width="1920" height="1080" fill="#001220"></rect><path d="M0 687L45.7 677.3C91.3 667.7 182.7 648.3 274.2 654.7C365.7 661 457.3 693 548.8 713.2C640.3 733.3 731.7 741.7 823 732.2C914.3 722.7 1005.7 695.3 1097 682.5C1188.3 669.7 1279.7 671.3 1371.2 668.8C1462.7 666.3 1554.3 659.7 1645.8 668C1737.3 676.3 1828.7 699.7 1874.3 711.3L1920 723L1920 1081L1874.3 1081C1828.7 1081 1737.3 1081 1645.8 1081C1554.3 1081 1462.7 1081 1371.2 1081C1279.7 1081 1188.3 1081 1097 1081C1005.7 1081 914.3 1081 823 1081C731.7 1081 640.3 1081 548.8 1081C457.3 1081 365.7 1081 274.2 1081C182.7 1081 91.3 1081 45.7 1081L0 1081Z" fill="#fa7268"></path><path d="M0 769L45.7 772.5C91.3 776 182.7 783 274.2 797.8C365.7 812.7 457.3 835.3 548.8 837.2C640.3 839 731.7 820 823 802.7C914.3 785.3 1005.7 769.7 1097 758.3C1188.3 747 1279.7 740 1371.2 747.2C1462.7 754.3 1554.3 775.7 1645.8 790C1737.3 804.3 1828.7 811.7 1874.3 815.3L1920 819L1920 1081L1874.3 1081C1828.7 1081 1737.3 1081 1645.8 1081C1554.3 1081 1462.7 1081 1371.2 1081C1279.7 1081 1188.3 1081 1097 1081C1005.7 1081 914.3 1081 823 1081C731.7 1081 640.3 1081 548.8 1081C457.3 1081 365.7 1081 274.2 1081C182.7 1081 91.3 1081 45.7 1081L0 1081Z" fill="#ef5f67"></path><path d="M0 889L45.7 873.7C91.3 858.3 182.7 827.7 274.2 832.5C365.7 837.3 457.3 877.7 548.8 892.2C640.3 906.7 731.7 895.3 823 883.7C914.3 872 1005.7 860 1097 855C1188.3 850 1279.7 852 1371.2 863.5C1462.7 875 1554.3 896 1645.8 885.3C1737.3 874.7 1828.7 832.3 1874.3 811.2L1920 790L1920 1081L1874.3 1081C1828.7 1081 1737.3 1081 1645.8 1081C1554.3 1081 1462.7 1081 1371.2 1081C1279.7 1081 1188.3 1081 1097 1081C1005.7 1081 914.3 1081 823 1081C731.7 1081 640.3 1081 548.8 1081C457.3 1081 365.7 1081 274.2 1081C182.7 1081 91.3 1081 45.7 1081L0 1081Z" fill="#e34c67"></path><path d="M0 944L45.7 946.8C91.3 949.7 182.7 955.3 274.2 945C365.7 934.7 457.3 908.3 548.8 898.7C640.3 889 731.7 896 823 896C914.3 896 1005.7 889 1097 883C1188.3 877 1279.7 872 1371.2 879C1462.7 886 1554.3 905 1645.8 905.5C1737.3 906 1828.7 888 1874.3 879L1920 870L1920 1081L1874.3 1081C1828.7 1081 1737.3 1081 1645.8 1081C1554.3 1081 1462.7 1081 1371.2 1081C1279.7 1081 1188.3 1081 1097 1081C1005.7 1081 914.3 1081 823 1081C731.7 1081 640.3 1081 548.8 1081C457.3 1081 365.7 1081 274.2 1081C182.7 1081 91.3 1081 45.7 1081L0 1081Z" fill="#d53867"></path><path d="M0 975L45.7 980.2C91.3 985.3 182.7 995.7 274.2 994C365.7 992.3 457.3 978.7 548.8 977.5C640.3 976.3 731.7 987.7 823 992.7C914.3 997.7 1005.7 996.3 1097 1001.8C1188.3 1007.3 1279.7 1019.7 1371.2 1020.5C1462.7 1021.3 1554.3 1010.7 1645.8 998C1737.3 985.3 1828.7 970.7 1874.3 963.3L1920 956L1920 1081L1874.3 1081C1828.7 1081 1737.3 1081 1645.8 1081C1554.3 1081 1462.7 1081 1371.2 1081C1279.7 1081 1188.3 1081 1097 1081C1005.7 1081 914.3 1081 823 1081C731.7 1081 640.3 1081 548.8 1081C457.3 1081 365.7 1081 274.2 1081C182.7 1081 91.3 1081 45.7 1081L0 1081Z" fill="#c62368"></path></svg>